<?xml version="1.0" encoding="UTF-8" standalone="no"?>
<!-- Created with Inkscape (http://www.inkscape.org/) -->

<svg
   version="1.1"
   id="svg1"
   width="192.05865"
   height="263.51007"
   viewBox="0 0 192.05865 263.51007"
   xml:space="preserve"
   xmlns:xlink="http://www.w3.org/1999/xlink"
   xmlns="http://www.w3.org/2000/svg"
   xmlns:svg="http://www.w3.org/2000/svg"><defs
     id="defs1"><clipPath
       clipPathUnits="userSpaceOnUse"
       id="clipPath17-3"><path
         d="M 0,3100 H 3840 V 0 H 0 Z"
         transform="translate(0,-2.5e-5)"
         id="path17-8" /></clipPath><clipPath
       clipPathUnits="userSpaceOnUse"
       id="clipPath19-2"><path
         d="M 0,3100 H 3840 V 0 H 0 Z"
         transform="translate(0,-2.5e-5)"
         id="path19-6" /></clipPath><clipPath
       clipPathUnits="userSpaceOnUse"
       id="clipPath21-9"><path
         d="M 0,3100 H 3840 V 0 H 0 Z"
         transform="translate(0,-2.5e-5)"
         id="path21-2" /></clipPath></defs><g
     id="g73"
     style="display:inline"
     transform="matrix(0.08301961,0,0,0.08301961,409.36778,382.64537)"><path
       id="path69"
       d="m 3497.187,700.442 c 8.2458,18.43996 -14.6392,43.93942 -34.2836,17.22017 C 3114.6922,244.04474 3063.494,186.864 3063.494,186.864 h 154.31 154.309 c 0,0 -12.926,231.578 125.074,513.578"
       style="display:inline;fill:#ff2800;fill-opacity:1;fill-rule:nonzero;stroke:none"
       transform="matrix(1.3089199,0,0,-1.3089199,-7197.3634,-1190.4367)"
       clip-path="url(#clipPath17-3)" /><path
       id="path70"
       d="m 3217.803,2525 c 0,-1429.6 -154.309,-2338.136 -154.309,-2338.136 h 154.309 154.31 c 0,0 -154.31,908.536 -154.31,2338.136"
       style="display:inline;fill:#ff2800;fill-opacity:1;fill-rule:nonzero;stroke:none"
       transform="matrix(1.3089199,0,0,-1.3089199,-7197.3634,-1190.4367)"
       clip-path="url(#clipPath19-2)" /><path
       id="path71"
       clip-path="url(#clipPath21-9)"
       style="display:inline;fill:#ff2800;fill-opacity:1;fill-rule:nonzero;stroke:none"
       d="m 1885.7916,711.49055 c -19.2679,0 -30.1941,-17.60034 -29.9986,-32.36594 -0.2326,-301.00551 -124.2993,-492.26087 -124.2993,-492.26087 h 308.6191 c 0,0 -124.3095,191.60495 -124.3095,493.09895 h -0.012 c -0.1874,17.7869 -13.2203,31.52786 -30,31.52786 z"
       transform="matrix(1.3089199,0,0,-1.2308324,-7197.3634,-1205.0282)" /><path
       style="display:inline;fill:#ff2800;fill-opacity:1;stroke-width:0.981692"
       d="m -3127.5152,-4609.0962 c 0,0 20.4385,12.0781 30.6408,18.1463 7.6439,4.5467 15.3373,9.0129 22.9056,13.6842 9.1065,5.6202 18.5473,10.7851 27.0712,17.254 6.1533,4.6695 11.4133,10.4139 17.2542,15.469 7.7178,6.6804 15.0946,13.8429 23.5008,19.6337 4.6797,3.2239 9.4971,6.4919 14.8737,8.3297 6.3566,2.1723 13.2204,3.2566 19.9313,2.9747 5.5991,-0.2351 11.0211,-2.1705 16.3616,-3.8673 6.8268,-2.1686 13.5637,-4.7509 19.9312,-8.032 7.5314,-3.8807 14.1188,-9.384 21.4193,-13.6842 10.5895,-6.2377 21.1127,-12.7474 32.4252,-17.5513 11.7769,-5.0014 24.4143,-7.6691 36.5901,-11.6018 15.0987,-4.877 30.1757,-9.8247 45.2172,-14.8741 7.2534,-2.435 21.7165,-7.437 21.7165,-7.437 0,0 -40.4032,7.6504 -60.6863,11.0067 -14.5412,2.4063 -29.0714,5.0088 -43.7301,6.5446 -19.6609,2.06 -39.4351,3.1118 -59.1984,3.5698 -14.2766,0.3309 -28.5903,0.3759 -42.8376,-0.5949 -11.3628,-0.7743 -22.7207,-2.0584 -33.9131,-4.1648 -14.5832,-2.7444 -28.9665,-6.5956 -43.1348,-11.0068 -11.2033,-3.4881 -21.9759,-8.2346 -33.0205,-12.1969 -11.069,-3.9711 -33.3179,-11.6016 -33.3179,-11.6016 z"
       id="path72" /></g></svg>
