<svg width="1439" height="133" fill="none" preserveAspectRatio="none" xmlns="http://www.w3.org/2000/svg">
<path fill-rule="evenodd" clip-rule="evenodd" d="M0 35.4652L64.875 46.3024C129.75 57.1396 259.5 78.814 389.25 89.6512C519 100.488 648.75 100.488 778.5 78.814C908.25 57.1396 1038 13.7908 1167.75 2.9536C1297.5 -7.8836 1427.25 13.7908 1492.12 24.628L1557 35.4652V133H1492.12C1427.25 133 1297.5 133 1167.75 133C1038 133 908.25 133 778.5 133C648.75 133 519 133 389.25 133C259.5 133 129.75 133 64.875 133H0V35.4652Z" fill="#ffffff"/>
</svg>
