<?xml version="1.0" encoding="UTF-8" standalone="no"?>
<!-- Created with Inkscape (http://www.inkscape.org/) -->

<svg
   version="1.1"
   id="svg1"
   width="5120"
   height="4133.3335"
   viewBox="0 0 5120 4133.3335"
   xml:space="preserve"
   xmlns="http://www.w3.org/2000/svg"
   xmlns:svg="http://www.w3.org/2000/svg"><defs
     id="defs1"><clipPath
       clipPathUnits="userSpaceOnUse"
       id="clipPath17"><path
         d="M 0,3100 H 3840 V 0 H 0 Z"
         transform="translate(0,-2.5e-5)"
         id="path17" /></clipPath><clipPath
       clipPathUnits="userSpaceOnUse"
       id="clipPath19"><path
         d="M 0,3100 H 3840 V 0 H 0 Z"
         transform="translate(0,-2.5e-5)"
         id="path19" /></clipPath><clipPath
       clipPathUnits="userSpaceOnUse"
       id="clipPath21"><path
         d="M 0,3100 H 3840 V 0 H 0 Z"
         transform="translate(0,-2.5e-5)"
         id="path21" /></clipPath></defs><g
     id="g32"
     style="display:inline;fill:#ff2800;fill-opacity:1"><path
       id="path16"
       d="m 3497.187,700.442 c 8.2458,18.43996 -14.6392,43.93942 -34.2836,17.22017 C 3114.6922,244.04474 3063.494,186.864 3063.494,186.864 h 154.31 154.309 c 0,0 -12.926,231.578 125.074,513.578"
       style="display:inline;fill-opacity:1;fill-rule:nonzero;stroke:none"
       transform="matrix(1.3333333,0,0,-1.3333333,0,4133.3333)"
       clip-path="url(#clipPath17)" /><path
       id="path18"
       d="m 3217.803,2525 c 0,-1429.6 -154.309,-2338.136 -154.309,-2338.136 h 154.309 154.31 c 0,0 -154.31,908.536 -154.31,2338.136"
       style="display:inline;fill-opacity:1;fill-rule:nonzero;stroke:none"
       transform="matrix(1.3333333,0,0,-1.3333333,0,4133.3333)"
       clip-path="url(#clipPath19)" /><path
       id="path20"
       clip-path="url(#clipPath21)"
       style="display:inline;fill-opacity:1;fill-rule:nonzero;stroke:none"
       d="m 1885.7916,711.49055 c -19.2679,0 -30.1941,-17.60034 -29.9986,-32.36594 -0.2326,-301.00551 -124.2993,-492.26087 -124.2993,-492.26087 h 308.6191 c 0,0 -124.3095,191.60495 -124.3095,493.09895 h -0.012 c -0.1874,17.7869 -13.2203,31.52786 -30,31.52786 z"
       transform="matrix(1.3333333,0,0,-1.2537893,0,4118.4694)" /><path
       style="display:inline;opacity:1;fill-opacity:1"
       d="m 4145.7576,650.90909 c 0,0 20.8199,12.30338 31.2121,18.48485 7.7866,4.6316 15.6236,9.18091 23.3333,13.93939 9.2757,5.72501 18.8929,10.98628 27.5758,17.57576 6.2679,4.75668 11.6264,10.60814 17.5758,15.75758 7.8622,6.80498 15.3764,14.10104 23.9393,20 4.7669,3.28389 9.6741,6.61282 15.1516,8.48485 6.4749,2.21292 13.4664,3.31741 20.303,3.0303 5.7036,-0.23953 11.226,-2.21102 16.6667,-3.93939 6.9541,-2.20912 13.8169,-4.83964 20.303,-8.18182 7.6717,-3.95312 14.3821,-9.55918 21.8182,-13.9394 10.7872,-6.35415 21.5068,-12.98515 33.0303,-17.87878 11.9969,-5.09465 24.8698,-7.81206 37.2727,-11.81819 15.3805,-4.96789 30.738,-10.00783 46.0606,-15.15151 7.3889,-2.48041 22.1212,-7.57576 22.1212,-7.57576 0,0 -41.1569,7.79318 -61.8182,11.21212 -14.8124,2.45109 -29.6133,5.10218 -44.5454,6.66667 -20.0279,2.0984 -40.1709,3.16981 -60.303,3.63636 -14.543,0.33702 -29.1232,0.38297 -43.6364,-0.60606 -11.5748,-0.78879 -23.144,-2.09673 -34.5455,-4.24242 -14.855,-2.79562 -29.507,-6.71863 -43.9394,-11.21212 -11.4122,-3.55314 -22.3859,-8.38809 -33.6363,-12.42425 -11.2757,-4.04524 -33.9394,-11.81818 -33.9394,-11.81818 z"
       id="path14" /></g></svg>
