<?xml version="1.0" encoding="UTF-8" standalone="no"?>
<!-- Created with Inkscape (http://www.inkscape.org/) -->

<svg
   version="1.1"
   id="svg1"
   width="257.55322"
   height="257.552"
   viewBox="0 0 257.55322 257.552"
   sodipodi:docname="Water Ball.svg"
   xml:space="preserve"
   inkscape:version="1.4 (e7c3feb1, 2024-10-09)"
   inkscape:export-filename="umiack-logo-c_2_new.svg"
   inkscape:export-xdpi="9.6912012"
   inkscape:export-ydpi="9.6912012"
   xmlns:inkscape="http://www.inkscape.org/namespaces/inkscape"
   xmlns:sodipodi="http://sodipodi.sourceforge.net/DTD/sodipodi-0.dtd"
   xmlns="http://www.w3.org/2000/svg"
   xmlns:svg="http://www.w3.org/2000/svg"><defs
     id="defs1"><clipPath
       clipPathUnits="userSpaceOnUse"
       id="clipPath15"><path
         d="M 0,3100 H 3840 V 0 H 0 Z"
         transform="translate(0,-2.5e-5)"
         id="path15" /></clipPath><clipPath
       clipPathUnits="userSpaceOnUse"
       id="clipPath13"><path
         d="M 0,3100 H 3840 V 0 H 0 Z"
         transform="translate(0,-2.5e-5)"
         id="path13" /></clipPath></defs><sodipodi:namedview
     id="namedview1"
     pagecolor="#ffffff"
     bordercolor="#000000"
     borderopacity="0.25"
     inkscape:showpageshadow="2"
     inkscape:pageopacity="0.0"
     inkscape:pagecheckerboard="0"
     inkscape:deskcolor="#d1d1d1"
     inkscape:zoom="2.8284271"
     inkscape:cx="129.22376"
     inkscape:cy="161.04357"
     inkscape:window-width="2064"
     inkscape:window-height="1162"
     inkscape:window-x="464"
     inkscape:window-y="93"
     inkscape:window-maximized="0"
     inkscape:current-layer="g32"><inkscape:page
       x="0"
       y="0"
       width="257.55322"
       height="257.552"
       id="page2"
       margin="0"
       bleed="0" /></sodipodi:namedview><g
     inkscape:groupmode="layer"
     id="g32"
     inkscape:label="Water"
     style="display:inline;fill:#ff2800;fill-opacity:1"
     inkscape:export-filename="g32.webp"
     inkscape:export-xdpi="19.382402"
     inkscape:export-ydpi="19.382402"
     transform="translate(-4646.9614,-2874.6946)"><path
       id="path1"
       d="m 3678.386,847.396 c 0,-53.285 -42.186,-96.581 -96.582,-96.581 -52.177,0 -96.583,43.296 -96.583,96.581 0,54.399 44.406,96.583 96.583,96.583 54.396,0 96.582,-42.184 96.582,-96.583"
       style="display:none;fill:#ff2800;fill-opacity:1;fill-rule:nonzero;stroke:none"
       transform="matrix(1.0253052,0,0,-1.0253052,1103.5461,3873.5612)"
       clip-path="url(#clipPath15)"
       inkscape:label="Water ball" /><path
       id="path24"
       clip-path="url(#clipPath13)"
       style="display:inline;fill:#ff2800;fill-opacity:1;fill-rule:nonzero;stroke:none;stroke-width:1.00031;stroke-dasharray:none"
       d="m 1885.8033,943.97851 c -52.177,0 -96.5816,-42.18401 -96.5816,-96.58301 0,-35.71099 14.5937,-66.93358 43.4562,-83.64492 4.8025,-2.78063 10.9875,-6.18953 16.041,-9.93324 4.0429,-2.99503 8.6989,-7.6374 11.3407,-9.96136 6.9513,-6.11481 10.1745,-16.21296 25.7437,-15.9128 16.8797,0.32543 19.5416,9.19022 26.4477,15.48498 2.3881,2.17672 7.5507,7.05446 11.7315,10.06655 5.5061,3.96693 12.318,7.45161 17.4672,10.45829 28.6922,16.75361 40.9366,47.86527 40.9366,83.4425 0,54.399 -42.187,96.58301 -96.583,96.58301 z"
       transform="matrix(1.0276837,0,0,-1.0276837,2837.728,3875.6989)"
       sodipodi:nodetypes="sssasssasss"
       inkscape:label="Water ball with bump" /></g></svg>
