<?xml version="1.0" encoding="utf-8"?><svg xmlns="http://www.w3.org/2000/svg" xmlns:xlink="http://www.w3.org/1999/xlink" width="200px" height="200px" viewBox="0 0 100 100" preserveAspectRatio="xMidYMid" style="margin-right:-2px;display:block;animation-play-state:paused" ><g transform="translate(50 50)" style="animation-play-state:paused" ><g transform="scale(0.7)" style="animation-play-state:paused" ><g transform="translate(-50 -50)" style="animation-play-state:paused" ><g transform="matrix(1,0,0,1,0,0)" style="animation-play-state:paused" ><path fill-opacity="0.8" fill="#fc4309" d="M50 50L50 0A50 50 0 0 1 100 50Z" style="animation-play-state:paused" ></path></g>

      
<g transform="matrix(1,0,0,1,0,0)" style="animation-play-state:paused" ><path fill-opacity="0.8" fill="#ff765c" d="M50 50L50 0A50 50 0 0 1 100 50Z" transform="rotate(90 50 50)" style="animation-play-state:paused" ></path></g>

      
<g transform="matrix(1,0,0,1,0,0)" style="animation-play-state:paused" ><path fill-opacity="0.8" fill="#ffb646" d="M50 50L50 0A50 50 0 0 1 100 50Z" transform="rotate(180 50 50)" style="animation-play-state:paused" ></path></g>

      
<g transform="matrix(1,0,0,1,0,0)" style="animation-play-state:paused" ><path fill-opacity="0.8" fill="#ff9900" d="M50 50L50 0A50 50 0 0 1 100 50Z" transform="rotate(270 50 50)" style="animation-play-state:paused" ></path></g></g></g></g><!-- generated by https://loading.io/ --></svg>